<?xml version="1.0" encoding="UTF-8" standalone="no"?>
<!-- Generator: Gravit.io -->
<svg xmlns="http://www.w3.org/2000/svg" xmlns:xlink="http://www.w3.org/1999/xlink" style="isolation:isolate" viewBox="0 0 24 24" width="24pt" height="24pt"><defs><clipPath id="_clipPath_bBMwDIGTUTOmn4LPEI1TGBRaNZHI08F9"><rect width="24" height="24"/></clipPath></defs><g clip-path="url(#_clipPath_bBMwDIGTUTOmn4LPEI1TGBRaNZHI08F9)"><rect width="24" height="24" style="fill:rgb(0,0,0)" fill-opacity="0"/><path d=" M 14.857 12 C 14.857 13.578 13.578 14.857 12 14.857 C 10.422 14.857 9.143 13.578 9.143 12 C 9.143 10.422 10.422 9.143 12 9.143 C 13.578 9.143 14.857 10.422 14.857 12 Z " fill="rgb(255,255,255)"/><path d=" M 12 24 C 18.045 24 23.047 19.53 23.879 13.714 L 16.85 13.714 C 16.144 15.712 14.239 17.143 12 17.143 C 9.761 17.143 7.856 15.712 7.15 13.714 L 0.122 13.714 C 0.953 19.53 5.955 24 12 24 Z  M 7.15 10.286 L 0.122 10.286 C 0.953 4.47 5.955 0 12 0 C 18.045 0 23.047 4.47 23.879 10.286 L 16.85 10.286 C 16.144 8.288 14.239 6.857 12 6.857 C 9.761 6.857 7.856 8.288 7.15 10.286 Z  M 14.857 12 C 14.857 13.578 13.578 14.857 12 14.857 C 10.422 14.857 9.143 13.578 9.143 12 C 9.143 10.422 10.422 9.143 12 9.143 C 13.578 9.143 14.857 10.422 14.857 12 Z " fill-rule="evenodd" fill="rgb(0,0,0)"/></g></svg>